<svg xmlns="http://www.w3.org/2000/svg" xmlns:xlink="http://www.w3.org/1999/xlink" width="1920" height="1190" fill="none" xmlns:v="https://vecta.io/nano"><style><![CDATA[.B{fill-rule:evenodd}.C{fill:#2f3a85}]]></style><path fill="url(#B)" d="M0 0h1920v1190H0z"/><g opacity=".2"><mask id="A" mask-type="alpha" maskUnits="userSpaceOnUse" x="0" y="0" width="1920" height="1190"><path fill="#fff" d="M0 0h1920v1190H0z"/></mask><g mask="url(#A)" class="B"><path d="M2058.04 1069.39c56.66-86.467 89.96-194.594 89.96-316.926a557.74 557.74 0 0 0-24.53-163.626c-63.18-205.309-242.1-361.872-463.4-386.013-156.56-16.999-344.8 49.29-554.3 209.113-88.95-112.086-181.476-232.477-276.485-340.992C642.76-142.358 520.351-215.478 354.163-215.478c-263.293 0-442.444 199.721-526.508 442.444A1014.06 1014.06 0 0 0-228 558.41c.466 180.393 42.381 347.047 114.88 483.58 182.178 343.71 557.091 497.87 949.236 205.7 93.146-69.24 180.624-158.04 269.114-247.69 62.59 62.62 130.34 119.87 202.52 171.16 291.7 203.6 601.56 125.28 750.29-101.84v.07zm-293.88-521.303c100.44 156.019 73.9 369.091-70.32 480.713-116.44-67.378-220.84-176.436-311.81-282.08 137.47-105.487 265.85-170.457 382.13-198.633zM396.389 189.474C540.455 304.587 678 489.56 820.669 671.816 688.014 803.384 555.824 930.761 420.296 1013.35c-109.74-107.586-173.535-253.502-177.993-407.119a594.27 594.27 0 0 1 154.086-416.757z" fill="url(#C)"/><path d="M1811.82 656.68a260.67 260.67 0 0 1 180.06-29.598 260.66 260.66 0 0 1 155.35 95.732 559.56 559.56 0 0 0-23.76-133.975 539.29 539.29 0 0 0-183.57-54.335 515.73 515.73 0 0 0-175.74 13.273c21.53 33.48 37.61 70.158 47.66 108.67" class="C"/><path d="M16.662 93.456c134.751-46.573 259.257 0 379.725 96.018C540.453 304.587 677.999 489.56 820.668 671.815l95.552 119.771a2643.76 2643.76 0 0 0 189.01 208.494c62.59 62.62 130.34 119.87 202.51 171.15 291.71 203.6 601.57 125.28 750.29-101.84-131.49 50.07-253.27 23.29-364.2-40.59-116.43-67.378-220.83-176.437-311.8-282.08l-114.49-136.691-86.32-104.246-75.45-93.845c-88.95-112.086-181.477-232.477-276.486-340.992-186.525-213.304-308.935-286.424-475.123-286.424-263.292 0-442.443 199.721-526.508 442.444 50.299-68.152 124.195-110.922 188.932-133.354" fill="url(#D)"/><path d="M387.073-39.277C553.106 18.94 732.722 245.207 923.516 488.007 1025.2 617.403 1126.5 747.885 1238.66 868.354l40.98 43.079c246.61 252.197 507.42 394.477 778.39 157.957-67.91 26.58-142.06 32.99-213.53 18.48-53.04-11.34-103.85-31.29-150.43-59.07-99.98-57.908-191.11-146.475-272.46-237.292l-39.35-44.788c-94.08-109.369-186.29-221.687-276.26-334.782-89.96-113.095-181.707-232.477-276.716-340.992-186.525-213.304-308.935-286.424-475.123-286.424-263.292 0-442.443 199.721-526.508 442.444C-35.111-42.692 214.442-99.666 387.073-39.277z" fill="url(#E)"/><g opacity=".15" class="C"><path d="M783.799 624.544l36.871 47.272 95.552 119.77a2643.38 2643.38 0 0 0 189.008 208.494c14.44 14.28 28.72 27.94 43 41.14l76.85-77.624c60.76-60.673 125.29-117.45 193.2-169.991l3.1-2.407-39.35-44.787-114.49-136.692-86.32-104.246-75.45-93.845-36.94-46.573c-72.9 56.19-142.125 116.989-207.254 182.023L783.954 624.7"/></g><path d="M1383.58 750.476c137.47-105.488 265.86-170.768 382.13-198.634a515.73 515.73 0 0 1 175.74-13.273c63.94 7.018 126.11 25.42 183.57 54.335-63.18-205.931-242.1-362.494-463.4-386.634-156.56-16.999-344.79 49.29-554.29 209.113-71.18 54.84-138.777 114.187-202.364 177.676l-82.744 82.201C689.566 806.829 557.376 934.206 421.849 1016.8c-84.918 51.69-170.768 85.92-259.567 92.68-95.164 7.29-189.785-20.96-273.849-64.04 182.178 343.71 557.09 497.86 949.235 205.7 93.146-69.24 180.622-158.04 269.112-247.7l78.01-78.393a2113.19 2113.19 0 0 1 198.79-174.571z" fill="url(#F)"/><path d="M1870.35 1059.15c-62.88-16.61-99.95-49.14-111.23-97.573-18.3 25.425-40.19 48.063-64.97 67.223a496.26 496.26 0 0 0 150.35 59.07 379.03 379.03 0 0 0 213.77-18.48c-77.62 5.85-140.18 2.44-187.69-10.24" class="C"/><path d="M-172.268 228.752A1014.54 1014.54 0 0 0-228 560.74c.466 180.393 42.382 346.969 114.88 483.66 84.065 43 178.53 71.26 273.849 63.96 88.489-6.75 174.649-40.91 259.567-92.68-109.854-107.603-173.722-253.601-178.18-407.311s50.84-303.163 154.273-416.953C275.92 95.01 151.415 48.436 16.664 95.398c-64.581 22.432-138.633 65.279-188.932 133.354z" fill="url(#G)"/><path d="M971.098 526.352l-46.03-58.76C734.507 225.024 554.735-1.243 388.702-59.459c-163.005-57.207-395.87-9.082-536.831 225.103-8.771 20.336-16.766 41.139-24.141 62.097C-35.112-41.451 214.442-98.425 387.072-38.036c166.033 58.216 345.65 284.484 536.444 527.284l37.336 45.72 10.246-8.616z" fill="url(#H)"/><path d="M1250.23 857.798l31.05 32.368c233.25 238.534 479.39 378.954 734.76 192.734 14.23-3.76 28.25-8.27 42-13.51-270.98 236.52-531.79 94.24-778.39-157.8l-40.99-43.08 11.57-10.712z" fill="url(#I)"/><path d="M960.387 534.969l-36.87-46.961 36.87 46.961z" fill="url(#J)"/><g opacity=".15" class="C"><path d="M-219.38 426.221a284.8 284.8 0 0 1 93.566-119.914c41.483-30.75 90.545-49.643 141.938-54.657a289.02 289.02 0 0 1 53.093 0c42.456 3.809 83.519 17.09 120.165 38.865a285.11 285.11 0 0 1 91.587 86.96 593.25 593.25 0 0 1 115.423-188C317.529 126.446 236.88 84.763 152.894 76.613 106.8 72.194 60.297 77.944 16.668 93.457c-64.581 22.433-138.633 65.202-188.932 133.509-22.398 64.656-38.184 131.415-47.116 199.255z"/></g><g opacity=".15" class="C"><path d="M146.135 1052.78c-69.963 15.53-156.382 11.96-259.257-10.71 84.065 43.08 178.53 71.34 273.85 64.04 7.762-.62 15.99-1.48 23.985-2.48 80.105-10.56 158.348-43.16 235.582-90.2a594.54 594.54 0 0 1-87.635-108.671c-35.965 79.484-98.062 128.901-186.292 148.261"/></g><path d="M-113.122 1041.99c354.499 410 712.49 116.9 1068.463-203.754C1166.78 648.528 1396.62 412.248 1643.46 373.36c153.53-24.141 359.62 40.596 480.01 215.4-63.18-205.232-242.1-361.795-463.4-385.935-156.56-16.999-344.8 49.29-554.3 209.113a2102.32 2102.32 0 0 0-202.358 177.676l-82.745 82.201C688.012 803.384 555.822 930.761 420.295 1013.35c-84.918 51.7-170.768 85.93-259.567 92.68-95.164 7.3-189.785-20.96-273.85-64.04z" fill="url(#K)"/><path d="M-113.122 1041.99c354.499 410 712.49 116.9 1068.463-203.753C1166.78 648.529 1396.62 412.249 1643.46 373.36c153.53-24.14 359.62 40.597 480.01 215.401-2.33-7.763-4.73-14.748-7.37-22.123-120.86-170.767-324.39-234.262-476.45-210.354-246.83 38.811-476.67 275.169-688.035 464.954-233.408 210.202-467.671 408.442-701.157 404.642-214.546-3.42-346.503-174.57-363.58-183.89z" fill="url(#L)"/></g></g><defs><radialGradient id="B" cx="0" cy="0" r="1" gradientTransform="translate(960 595) scale(960 833)" xlink:href="#M"><stop offset=".073" stop-color="#102a49"/><stop offset=".927" stop-color="#242424"/></radialGradient><linearGradient id="C" x1="2148" y1="593.185" x2="-228" y2="593.185" xlink:href="#M"><stop stop-color="#2f3a85"/><stop offset=".17" stop-color="#354c92"/><stop offset=".53" stop-color="#467bb5"/><stop offset="1" stop-color="#5fc4ea"/></linearGradient><linearGradient id="D" x1="2105.31" y1="939.688" x2="-135.088" y2="124.272" xlink:href="#M"><stop stop-color="#2f3a85"/><stop offset="1" stop-color="#5fc4ea"/></linearGradient><linearGradient id="E" x1="942.922" y1="-215.478" x2="942.922" y2="1190.25" xlink:href="#M"><stop stop-color="#70c9eb" stop-opacity=".6"/><stop offset=".18" stop-color="#6ec8eb" stop-opacity=".52"/><stop offset=".53" stop-color="#68c7eb" stop-opacity=".31"/><stop offset="1" stop-color="#5fc4ea" stop-opacity="0"/></linearGradient><linearGradient id="F" x1="1006.73" y1="203.679" x2="1006.73" y2="1405.16" xlink:href="#M"><stop offset=".097" stop-color="#5fc4ea"/><stop offset="1" stop-color="#2f3a85"/></linearGradient><linearGradient id="G" x1="96.148" y1="77.079" x2="96.148" y2="1109.21" xlink:href="#M"><stop stop-color="#1b4880"/><stop offset="1" stop-color="#0597b0"/></linearGradient><linearGradient id="H" x1="-172.27" y1="226.809" x2="971.098" y2="226.809" xlink:href="#M"><stop offset=".38" stop-color="#70c9eb" stop-opacity=".2"/><stop offset=".44" stop-color="#6fc9eb" stop-opacity=".97"/><stop offset=".52" stop-color="#6ec8eb" stop-opacity=".88"/><stop offset=".63" stop-color="#6bc8eb" stop-opacity=".74"/><stop offset=".75" stop-color="#68c7eb" stop-opacity=".55"/><stop offset=".88" stop-color="#63c5ea" stop-opacity=".3"/><stop offset="1" stop-color="#5fc4ea" stop-opacity=".05"/></linearGradient><linearGradient id="I" x1="1238.66" y1="1023.99" x2="2058.04" y2="1023.99" xlink:href="#M"><stop stop-color="#70c9eb" stop-opacity=".1"/><stop offset="1" stop-color="#5fc4ea" stop-opacity="0"/></linearGradient><linearGradient id="J" x1="923.517" y1="511.527" x2="960.387" y2="511.527" xlink:href="#M"><stop stop-color="#70c9eb"/><stop offset=".4" stop-color="#69c7eb" stop-opacity=".63"/><stop offset="1" stop-color="#5fc4ea" stop-opacity=".05"/></linearGradient><linearGradient id="K" x1="1005.17" y1="200.233" x2="1005.17" y2="1243.07" xlink:href="#M"><stop offset=".243" stop-color="#71d0f3"/><stop offset="1" stop-color="#2f3a85" stop-opacity=".3"/></linearGradient><linearGradient id="L" x1="2123.47" y1="797.33" x2="-113.122" y2="797.33" xlink:href="#M"><stop offset=".034" stop-color="#b8ebff" stop-opacity=".05"/><stop offset=".389" stop-color="#b8ebff" stop-opacity=".5"/><stop offset=".868" stop-color="#5fc4ea" stop-opacity=".05"/></linearGradient><linearGradient id="M" gradientUnits="userSpaceOnUse"/></defs></svg>