<svg xmlns="http://www.w3.org/2000/svg" width="150" height="31.959" viewBox="0 0 150 31.959"><defs><style>.a{fill:#fff;}</style></defs><g transform="translate(-91.809 -230.979)"><g transform="translate(132.353 233.157)"><path class="a" d="M266.822,240.065v12.552h-3.551v-9.809H260.94v-2.744Z" transform="translate(-260.94 -240.065)"/><path class="a" d="M297.118,240.065v12.552h-3.55v-9.809h-2.331v-2.744Z" transform="translate(-283.974 -240.065)"/><path class="a" d="M324.674,265.648h5.236v2.618h-5.236Z" transform="translate(-309.396 -259.515)"/><path class="a" d="M354.717,240.065v12.552h-3.551v-9.809h-2.331v-2.744Z" transform="translate(-327.765 -240.065)"/><path class="a" d="M385.013,240.065v12.552h-3.551v-9.809h-2.331v-2.744Z" transform="translate(-350.798 -240.065)"/></g><g transform="translate(133.501 249.257)"><path class="a" d="M265.728,308.275h5.935a8.312,8.312,0,0,1,3.658.771,5.814,5.814,0,0,1,2.475,2.188,6.7,6.7,0,0,1,0,6.635,5.809,5.809,0,0,1-2.475,2.188,8.312,8.312,0,0,1-3.658.771h-5.935Zm5.792,9.719a3.639,3.639,0,0,0,2.591-.915,3.759,3.759,0,0,0,0-5.057,3.639,3.639,0,0,0-2.591-.915h-2.241v6.886Z" transform="translate(-265.728 -308.024)"/><path class="a" d="M333.879,313.486h3.138v5.2a8.17,8.17,0,0,1-2.475,1.184,9.855,9.855,0,0,1-2.8.412,7.481,7.481,0,0,1-3.55-.834,6.217,6.217,0,0,1-2.475-2.322,6.787,6.787,0,0,1,0-6.743,6.19,6.19,0,0,1,2.493-2.322,7.666,7.666,0,0,1,3.6-.834,8.028,8.028,0,0,1,3.156.592,6.083,6.083,0,0,1,2.331,1.7l-2.26,2.044a3.983,3.983,0,0,0-3.048-1.4,3.376,3.376,0,0,0-3.586,3.586,3.79,3.79,0,0,0,.448,1.856,3.213,3.213,0,0,0,1.255,1.273,3.679,3.679,0,0,0,1.847.457,4.529,4.529,0,0,0,1.919-.413Z" transform="translate(-310.657 -307.228)"/><path class="a" d="M416.468,309.423a4.326,4.326,0,0,1,0,6.3,5.7,5.7,0,0,1-3.766,1.139h-3.371v3.963H408V308.275h4.7A5.672,5.672,0,0,1,416.468,309.423Zm-.95,5.461a2.824,2.824,0,0,0,.986-2.3,2.866,2.866,0,0,0-.986-2.34,4.369,4.369,0,0,0-2.851-.816h-3.335V315.7h3.335A4.369,4.369,0,0,0,415.518,314.883Z" transform="translate(-373.898 -308.024)"/><path class="a" d="M463.1,321.916a3.57,3.57,0,0,1,.986,2.734V330.5h-1.219v-1.47a2.918,2.918,0,0,1-1.264,1.148,4.426,4.426,0,0,1-1.982.413,3.881,3.881,0,0,1-2.511-.753,2.591,2.591,0,0,1-.063-3.927,4.257,4.257,0,0,1,2.77-.735h2.995V324.6a2.417,2.417,0,0,0-.681-1.856,2.815,2.815,0,0,0-1.99-.636,5.059,5.059,0,0,0-1.722.3,4.345,4.345,0,0,0-1.417.816l-.574-.95a5.088,5.088,0,0,1,1.721-.941,6.706,6.706,0,0,1,2.116-.332A3.994,3.994,0,0,1,463.1,321.916Zm-1.435,7.173a2.945,2.945,0,0,0,1.148-1.426v-1.542h-2.959q-2.421,0-2.421,1.685a1.542,1.542,0,0,0,.628,1.3,2.858,2.858,0,0,0,1.757.475A3.354,3.354,0,0,0,461.665,329.088Z" transform="translate(-410.523 -317.693)"/><path class="a" d="M506.159,321.476a4.542,4.542,0,0,1,2.2-.484v1.237l-.3-.018a3.012,3.012,0,0,0-2.331.914,3.644,3.644,0,0,0-.843,2.564V330.5H503.6v-9.432h1.219v1.847A3.083,3.083,0,0,1,506.159,321.476Z" transform="translate(-446.581 -317.693)"/><path class="a" d="M535.025,323.61a2.42,2.42,0,0,1-.888.493,3.587,3.587,0,0,1-1.1.17,2.5,2.5,0,0,1-2.762-2.744v-5.7h-1.686v-1.076h1.686v-2.062h1.273v2.062h2.869v1.076h-2.869v5.631a1.782,1.782,0,0,0,.421,1.282,1.6,1.6,0,0,0,1.21.439,2.346,2.346,0,0,0,.762-.125,1.9,1.9,0,0,0,.636-.359Z" transform="translate(-465.574 -311.38)"/><path class="a" d="M572.721,322.023a4.029,4.029,0,0,1,1.049,3V330.5H572.5v-5.344a3.127,3.127,0,0,0-.735-2.241,2.762,2.762,0,0,0-2.1-.771,3.224,3.224,0,0,0-2.412.905,3.421,3.421,0,0,0-.888,2.5V330.5h-1.273v-9.432h1.219V322.8a3.544,3.544,0,0,1,1.444-1.336,4.625,4.625,0,0,1,2.143-.475A3.854,3.854,0,0,1,572.721,322.023Z" transform="translate(-493.328 -317.693)"/><path class="a" d="M621.081,326.175h-7.89a3.37,3.37,0,0,0,1.13,2.376,3.75,3.75,0,0,0,2.582.906,4.066,4.066,0,0,0,1.614-.314,3.52,3.52,0,0,0,1.273-.923l.717.825a4.04,4.04,0,0,1-1.569,1.148,5.3,5.3,0,0,1-2.071.395,5.235,5.235,0,0,1-2.573-.619,4.457,4.457,0,0,1-1.748-1.712,4.88,4.88,0,0,1-.628-2.475,5.054,5.054,0,0,1,.6-2.475,4.351,4.351,0,0,1,1.65-1.7,4.608,4.608,0,0,1,2.358-.61,4.562,4.562,0,0,1,2.349.61,4.323,4.323,0,0,1,1.632,1.695,5.1,5.1,0,0,1,.592,2.484Zm-6.841-3.219a3.415,3.415,0,0,0-1.049,2.268h6.689a3.419,3.419,0,0,0-1.049-2.268,3.464,3.464,0,0,0-4.591,0Z" transform="translate(-528.93 -317.693)"/><path class="a" d="M663.619,321.476a4.541,4.541,0,0,1,2.2-.484v1.237l-.3-.018a3.012,3.012,0,0,0-2.331.914,3.643,3.643,0,0,0-.843,2.564V330.5h-1.273v-9.432h1.219v1.847A3.083,3.083,0,0,1,663.619,321.476Z" transform="translate(-566.294 -317.693)"/><path class="a" d="M686.94,330.254a4.721,4.721,0,0,1-1.641-.834l.574-1a4.816,4.816,0,0,0,1.488.762,5.912,5.912,0,0,0,1.865.3,3.56,3.56,0,0,0,1.91-.4,1.284,1.284,0,0,0,.619-1.139,1.025,1.025,0,0,0-.341-.816,2.262,2.262,0,0,0-.861-.448,12.361,12.361,0,0,0-1.381-.3,15.827,15.827,0,0,1-1.847-.439,2.715,2.715,0,0,1-1.193-.762,2.12,2.12,0,0,1-.493-1.488,2.332,2.332,0,0,1,.986-1.937,4.427,4.427,0,0,1,2.744-.753,7.119,7.119,0,0,1,1.829.242,5.041,5.041,0,0,1,1.506.637l-.556,1.022a4.762,4.762,0,0,0-2.78-.807,3.226,3.226,0,0,0-1.838.43,1.319,1.319,0,0,0-.619,1.13,1.116,1.116,0,0,0,.35.861,2.147,2.147,0,0,0,.87.475,14.142,14.142,0,0,0,1.435.314,16.564,16.564,0,0,1,1.811.43,2.662,2.662,0,0,1,1.165.735,2.022,2.022,0,0,1,.484,1.435A2.281,2.281,0,0,1,692,329.859a4.9,4.9,0,0,1-2.86.727A7.23,7.23,0,0,1,686.94,330.254Z" transform="translate(-584.72 -317.693)"/></g><g transform="translate(91.809 230.979)"><path class="a" d="M125.81,230.979l7.507,15.443H153.05l-7.936-15.443Z" transform="translate(-117.659 -230.979)"/><path class="a" d="M98.244,230.979l7.507,16.516-7.507,15.443-6.435-15.979Z" transform="translate(-91.809 -230.979)"/><path class="a" d="M132.888,302.559H153.05l-7.293,14.8H125.81Z" transform="translate(-117.659 -285.4)"/></g><path class="a" d="M359.52,330.772v2.174h-5.1l.409-2.174Z" transform="translate(-199.661 -75.871)"/></g></svg>