<svg xmlns="http://www.w3.org/2000/svg" data-name="Layer 1" viewBox="0 0 774 156.525"><path fill="#fff" d="M107 58.46 53.49 4.97 0 58.46l21.86 21.86L0 102.18l53.49 53.48L107 102.18 85.11 80.32Zm-87.43 0 33.92-33.95 33.94 34-12.08 12.04-21.86-21.86-21.86 21.86Zm33.95 34L41.4 80.32l12.09-12.06 12.09 12.09Zm-21.86-2.32 21.86 21.85 21.86-21.85 12.08 12.09-33.94 34-33.98-34.05z"/><path fill="#fff" d="m194.44 86.16-39.75-50.43v50.43h-18.27V4.6h15.74l39.64 50.31V4.6h18.38v81.56zm23.3-28.72a30.21 30.21 0 1 1 30.21 30 30 30 0 0 1-30.21-30zm43 0c0-8.16-5.51-13.79-12.75-13.79s-12.79 5.61-12.79 13.79 5.51 13.82 12.8 13.82c7.29 0 12.7-5.66 12.7-13.82zm26.95-28.72H305v8.62a14.84 14.84 0 0 1 13.67-9.31 20.53 20.53 0 0 1 5.63.69v17.54a22.18 22.18 0 0 0-7.7-1.38c-7.46 0-11.6 5.74-11.6 14v27.28h-17.31zm53.63 36.42V43.77h-11.49V28.72h11.49v-16h17.35v16h16.08v15.05h-16.08v17.81c0 6.89 2.87 9.76 9.76 9.76a17.13 17.13 0 0 0 6.32-1v15.39a38.82 38.82 0 0 1-10.34 1.15c-12.75-.03-23.09-7.15-23.09-21.74ZM384.51 0h17.34v34.58c2.76-3.91 8.5-7.12 16-7.12 14.13 0 22.28 10.45 22.28 25.5v33.2h-17.37V55.95c0-7.93-3.1-12.75-9.31-12.75-6.54 0-11.6 4.7-11.6 15v27.96h-17.34zm83.06 4.6h18.26v81.56h-18.26zm26.18 62.83H512c.24 4.6 4.14 6.9 9.08 6.9 4.48 0 6.44-1.61 6.44-3.68 0-2.53-2.07-3.67-6.55-4.83l-11.61-3c-10-2.53-14.47-9.54-14.47-18 0-10 8.84-17.34 24-17.34 12.63 0 23 6.43 23.78 18.61h-17.44c-.69-4.25-3.68-5.29-6.67-5.29-3.56 0-5.85 1.38-5.85 3.68 0 3 3.21 3.79 5.85 4.48L529 51.7c11.6 3.1 16.19 9 16.19 18 0 10.68-10.22 17.69-24.69 17.69-15.61.03-26.17-8.7-26.75-19.96zM554.74 0h17.35v86.16h-17.35zm24.69 57.44c0-16.31 11.6-30 26.65-30 7.7 0 13.33 3.9 15.62 7v-5.72h17.35v57.44H621.7v-5.75c-2.29 3.11-7.92 7-15.62 7-15.08.01-26.65-13.66-26.65-29.97Zm43.65 0c0-8.27-5.28-14.24-13.09-14.24s-13.1 6-13.1 14.24 5.29 14.24 13.1 14.24 13.09-5.97 13.09-14.24zm29.05-28.72h17.35v5.86c2.75-3.91 8.5-7.12 16-7.12 14.13 0 22.29 10.45 22.29 25.5v33.2h-17.39V55.95c0-7.93-3.1-12.75-9.3-12.75-6.55 0-11.6 4.7-11.6 15v27.96h-17.35zm62.25 28.72c0-16.31 11.6-30 26.65-30 7.7 0 13.33 3.9 15.62 7V0H774v86.16h-17.35v-5.75c-2.29 3.11-7.92 7-15.62 7-15.03.01-26.65-13.66-26.65-29.97Zm43.65 0c0-8.27-5.28-14.24-13.09-14.24s-13.1 6-13.1 14.24 5.28 14.24 13.1 14.24c7.82 0 13.06-5.97 13.06-14.24zm-621.61 48.4h7.25l16.89 39.7 16.83-39.7h7.1l-21.25 50h-5.49zm61.03 50.68c-10.28 0-17.74-7.82-17.74-18.3 0-10.28 6.9-18.3 17.88-18.3 10.98 0 17.73 9 16.89 19.92h-28.65a11.52 11.52 0 0 0 11.69 11.19c4.36 0 8.09-1.69 10.2-5.91h6.2c-1.76 6.19-7.53 11.4-16.47 11.4zm-11.33-21.47h22c-1.13-6.55-5.49-9.78-10.7-9.78-5.21 0-10.11 2.81-11.3 9.78zm34.99-14.43h6v5.42a12.44 12.44 0 0 1 11.19-6.12c7.88 0 13.3 5.49 13.3 14.22v21.67h-6v-20.76c0-5.91-3.38-9.57-8.31-9.57-5.7 0-10.2 4.64-10.2 12.88v17.45h-6zm53.98 35.55c-6.12 0-10.77-3.45-10.77-10.77v-19.22h-7.46v-5.56h7.46v-9.78h6.05v9.78h10.14v5.56h-10.14v18.44c0 4.51 2 6 5.85 6a13.47 13.47 0 0 0 4.29-.71v5.42a16.92 16.92 0 0 1-5.42.84zm11.97-35.55h6.05v20.69c0 5.92 3.1 9.65 8 9.65 5.48 0 9.78-4.79 9.78-12.88v-17.46h6v35.19h-6v-5.42a12.1 12.1 0 0 1-10.89 6.13c-7.74 0-12.95-5.56-12.95-14.29zm40.55 0h6.05v6.83a10.48 10.48 0 0 1 9.85-7.18 12.65 12.65 0 0 1 2.75.28v6.27a8.71 8.71 0 0 0-3.26-.56c-4.43 0-9.29 3.87-9.29 12.11v17.45h-6.05zm38.78 35.9c-10.28 0-17.74-7.82-17.74-18.3 0-10.28 6.9-18.3 17.88-18.3 10.98 0 17.74 9 16.89 19.92h-28.64a11.51 11.51 0 0 0 11.68 11.19c4.37 0 8.1-1.69 10.21-5.91h6.19c-1.76 6.19-7.53 11.4-16.47 11.4zm-11.33-21.47h22c-1.13-6.55-5.49-9.78-10.7-9.78-5.21 0-10.1 2.81-11.3 9.78zm47.73 21.47c-7.53 0-13.8-3.8-14.29-10.91h6.19c.85 4.29 4.51 5.77 8.17 5.77s6.76-1.55 6.76-4.65c0-2.81-1.69-4.5-5.85-5.63l-5.07-1.33c-6.05-1.55-9.07-5.35-9.07-10.35 0-5.84 5.06-9.5 12.17-9.5 7.53 0 12.18 4.43 12.81 10.06h-6.05a6.76 6.76 0 0 0-6.76-5c-3.38 0-6.05 1.69-6.05 4.36 0 2.67 1.62 4.08 5.35 5.07l5.63 1.48c5.84 1.47 9 5.13 9 10.41.01 6.96-5.62 10.22-12.94 10.22z" class="cls-2"/></svg>