<svg xmlns="http://www.w3.org/2000/svg" viewBox="0 0 120 27.414"><path fill="#fff" d="M116.094.018a3.873 3.873 0 0 0-3.277 1.8 3.86 3.86 0 0 0-6.554 0 3.874 3.874 0 1 0 0 4.129 3.854 3.854 0 0 0 6.554 0 3.867 3.867 0 0 0 7.137-2.064 3.867 3.867 0 0 0-3.867-3.865M99.754 11.626a3.867 3.867 0 1 0 0 4.129 3.86 3.86 0 0 0 6.554 0 3.86 3.86 0 0 0 6.554 0 3.867 3.867 0 1 0 0-4.129 3.86 3.86 0 0 0-6.554 0 3.86 3.86 0 0 0-6.554 0Zm-43.19 2.064a3.867 3.867 0 1 0-4.509 0 3.867 3.867 0 1 0 4.509 0Zm-5.046-9.805a3.867 3.867 0 0 0-7.013-2.255 3.874 3.874 0 1 0 0 4.509 3.867 3.867 0 0 0 7.013-2.255Zm-12.944 6.666a3.873 3.873 0 1 0-6.128 3.139 3.873 3.873 0 1 0 4.516 0 3.867 3.867 0 0 0 1.612-3.139Zm-13.532 9.673a3.86 3.86 0 0 0 0-6.554 3.874 3.874 0 1 0-4.129 0 3.854 3.854 0 0 0 0 6.554 3.867 3.867 0 1 0 4.129 0ZM20.826 3.885a3.867 3.867 0 0 0-7.13-2.067 3.86 3.86 0 0 0-6.554 0 3.836 3.836 0 0 0-.6-.734 2.737 2.737 0 0 0-.328-.288L6.168.757a4.455 4.455 0 0 0-.36-.236 4.121 4.121 0 0 0-.419-.2h-.046a3.563 3.563 0 0 0-.4-.177h-.125A2.636 2.636 0 0 0 4.49.078a.875.875 0 0 0-.131 0 3.567 3.567 0 0 0-.465-.033 3.867 3.867 0 0 0-2.071 7.111 3.86 3.86 0 0 0 0 6.554 3.86 3.86 0 0 0 0 6.554 3.874 3.874 0 1 0 4.129 0 3.854 3.854 0 0 0 0-6.554 3.86 3.86 0 0 0 0-6.554l.216-.138.046-.033c.118-.092.229-.184.334-.282a4.066 4.066 0 0 0 .6-.741 3.854 3.854 0 0 0 6.554 0 3.867 3.867 0 0 0 7.124-2.078Zm16.673 19.613a3.867 3.867 0 0 0 7.006 2.255 3.867 3.867 0 1 0 0-4.509 3.867 3.867 0 0 0-7.006 2.254Zm55.119-.004a3.867 3.867 0 0 0 7.137 2.064 3.86 3.86 0 0 0 6.554 0 3.867 3.867 0 1 0 0-4.129 3.86 3.86 0 0 0-6.554 0 3.867 3.867 0 0 0-7.137 2.064ZM69.325 1.818a3.86 3.86 0 0 1 6.554 0 3.874 3.874 0 1 1 0 4.129 3.854 3.854 0 0 1-6.554 0 4.065 4.065 0 0 1-.6.741c-.1.1-.216.19-.334.282l-.046.033-.216.138a3.867 3.867 0 0 1 0 6.554 3.86 3.86 0 0 1 0 6.554 3.93 3.93 0 0 1 1.2 1.18 3.86 3.86 0 0 1 6.554 0 3.867 3.867 0 1 1 0 4.129 3.86 3.86 0 0 1-6.554 0 3.867 3.867 0 1 1-5.335-5.335 3.86 3.86 0 0 1 0-6.554 3.86 3.86 0 0 1 0-6.554 3.867 3.867 0 0 1 2.058-7.1 3.566 3.566 0 0 1 .465.033.875.875 0 0 1 .131 0 2.958 2.958 0 0 1 .328.066h.125a3.418 3.418 0 0 1 .367.118h.052a4.122 4.122 0 0 1 .419.2c.124.073.244.151.36.236l.046.039a2.688 2.688 0 0 1 .334.282 3.859 3.859 0 0 1 .646.829ZM85.14 6.55a3.867 3.867 0 0 1 2.064 7.137 3.874 3.874 0 1 1-4.129 0 3.867 3.867 0 0 1 2.064-7.137Z" class="a"/></svg>