<svg xmlns="http://www.w3.org/2000/svg" width="120" height="27.414" viewBox="0 0 120 27.414"><defs><style>.a{fill:#fff;}</style></defs><g transform="translate(-8.223 -6.782)"><path class="a" d="M176.431,6.8a3.873,3.873,0,0,0-3.277,1.8,3.86,3.86,0,0,0-6.554,0,3.874,3.874,0,1,0,0,4.129,3.854,3.854,0,0,0,6.554,0,3.867,3.867,0,0,0,7.137-2.064h0A3.867,3.867,0,0,0,176.424,6.8" transform="translate(-52.114 0)"/><path class="a" d="M156.677,23.563a3.867,3.867,0,1,0,0,4.129,3.86,3.86,0,0,0,6.554,0,3.86,3.86,0,0,0,6.554,0,3.867,3.867,0,1,0,0-4.129,3.86,3.86,0,0,0-6.554,0,3.86,3.86,0,0,0-6.554,0Z" transform="translate(-48.7 -5.155)"/><path class="a" d="M91.311,23.985a3.867,3.867,0,1,0-4.509,0,3.867,3.867,0,1,0,4.509,0Z" transform="translate(-26.524 -3.513)"/><path class="a" d="M79.45,10.673a3.867,3.867,0,0,0-7.013-2.255,3.874,3.874,0,1,0,0,4.509,3.867,3.867,0,0,0,7.013-2.255Z" transform="translate(-19.709 -0.006)"/><path class="a" d="M63.007,20.838a3.873,3.873,0,1,0-6.128,3.139,3.873,3.873,0,1,0,4.516,0A3.867,3.867,0,0,0,63.007,20.838Z" transform="translate(-16.21 -3.505)"/><path class="a" d="M43.3,30.434a3.86,3.86,0,0,0,0-6.554,3.874,3.874,0,1,0-4.129,0,3.854,3.854,0,0,0,0,6.554,3.867,3.867,0,1,0,4.129,0Z" transform="translate(-10.035 -3.428)"/><path class="a" d="M29.049,10.667A3.867,3.867,0,0,0,21.919,8.6a3.86,3.86,0,0,0-6.554,0h0a3.836,3.836,0,0,0-.6-.734h0a2.737,2.737,0,0,0-.328-.288l-.046-.039c-.116-.085-.237-.163-.36-.236h0a4.121,4.121,0,0,0-.419-.2h-.046a3.563,3.563,0,0,0-.4-.177h-.125a2.636,2.636,0,0,0-.328-.066.875.875,0,0,0-.131,0,3.567,3.567,0,0,0-.465-.033,3.867,3.867,0,0,0-2.071,7.111,3.86,3.86,0,0,0,0,6.554,3.86,3.86,0,0,0,0,6.554,3.874,3.874,0,1,0,4.129,0,3.854,3.854,0,0,0,0-6.554,3.86,3.86,0,0,0,0-6.554l.216-.138.046-.033c.118-.092.229-.184.334-.282h0a4.066,4.066,0,0,0,.6-.741h0a3.854,3.854,0,0,0,6.554,0,3.867,3.867,0,0,0,7.124-2.078Z" transform="translate(0 0)"/><path class="a" d="M65.44,40.6a3.867,3.867,0,0,0,7.006,2.255,3.867,3.867,0,1,0,0-4.509A3.867,3.867,0,0,0,65.44,40.6Z" transform="translate(-19.718 -10.32)"/><path class="a" d="M149.54,40.587a3.867,3.867,0,0,0,7.137,2.064,3.86,3.86,0,0,0,6.554,0,3.867,3.867,0,1,0,0-4.129,3.86,3.86,0,0,0-6.554,0,3.867,3.867,0,0,0-7.137,2.064Z" transform="translate(-48.699 -10.311)"/><path class="a" d="M110.238,8.6a3.86,3.86,0,0,1,6.554,0,3.874,3.874,0,1,1,0,4.129,3.854,3.854,0,0,1-6.554,0,4.065,4.065,0,0,1-.6.741h0c-.1.1-.216.19-.334.282l-.046.033-.216.138a3.867,3.867,0,0,1,0,6.554,3.86,3.86,0,0,1,0,6.554,3.93,3.93,0,0,1,1.2,1.18,3.86,3.86,0,0,1,6.554,0,3.867,3.867,0,1,1,0,4.129,3.86,3.86,0,0,1-6.554,0,3.867,3.867,0,1,1-5.335-5.335,3.86,3.86,0,0,1,0-6.554,3.86,3.86,0,0,1,0-6.554,3.867,3.867,0,0,1,2.058-7.1,3.566,3.566,0,0,1,.465.033.875.875,0,0,1,.131,0,2.958,2.958,0,0,1,.328.066h.125a3.418,3.418,0,0,1,.367.118h.052a4.122,4.122,0,0,1,.419.2h0c.124.073.244.151.36.236l.046.039a2.688,2.688,0,0,1,.334.282h0A3.859,3.859,0,0,1,110.238,8.6Zm15.815,4.732a3.867,3.867,0,0,1,2.064,7.137,3.874,3.874,0,1,1-4.129,0,3.867,3.867,0,0,1,2.064-7.137Z" transform="translate(-32.69 0)"/></g></svg>