<svg xmlns="http://www.w3.org/2000/svg" width="22.425" height="22.422" viewBox="0 0 22.425 22.422"><defs><style>.a{fill:#fff;}</style></defs><g transform="translate(-0.787 -492.79)"><path class="a" d="M11.093,510.527a1.5,1.5,0,0,1-.65.382.249.249,0,0,0-.181.212l-.227,1.941a1.03,1.03,0,0,0,1.752.849l2.671-2.671a7.692,7.692,0,0,0,1.622-2.446,12.4,12.4,0,0,0,.366-3.007.25.25,0,0,0-.427-.186Z"/><path class="a" d="M5.484,504.92l4.952-4.964a.251.251,0,0,0-.184-.427,12.99,12.99,0,0,0-3.087.349,7.675,7.675,0,0,0-2.415,1.653l-2.662,2.662a1.031,1.031,0,0,0,.727,1.759c.035,0,1.572-.185,2.091-.248a.251.251,0,0,0,.209-.174A1.5,1.5,0,0,1,5.484,504.92Z"/><path class="a" d="M6.038,508.536c-.845-.847-2.125-.7-3.183.353-.749.75-1.519,3.166-2.033,5.062a1,1,0,0,0,1.23,1.226c1.889-.52,4.3-1.3,5.046-2.045,1.057-1.057,1.2-2.337.354-3.182Z"/><path class="a" d="M22.62,492.8c-1.248.252-3.756.838-4.534,1.616-.648.643-9.961,9.984-11.364,11.384a.25.25,0,0,0,0,.353l3.134,3.137a.251.251,0,0,0,.353,0l11.378-11.377c.779-.779,1.365-3.287,1.616-4.534a.495.495,0,0,0-.583-.579Z"/></g></svg>